<?xml version="1.0" encoding="UTF-8" standalone="no"?>
<!-- Created with Inkscape (http://www.inkscape.org/) -->

<svg
   xmlns:dc="http://purl.org/dc/elements/1.1/"
   xmlns:cc="http://creativecommons.org/ns#"
   xmlns:rdf="http://www.w3.org/1999/02/22-rdf-syntax-ns#"
   xmlns:svg="http://www.w3.org/2000/svg"
   xmlns="http://www.w3.org/2000/svg"
   xmlns:sodipodi="http://sodipodi.sourceforge.net/DTD/sodipodi-0.dtd"
   xmlns:inkscape="http://www.inkscape.org/namespaces/inkscape"
   width="1200"
   height="620"
   viewBox="0 0 317.49999 164.0417"
   version="1.1"
   id="svg8"
   inkscape:version="0.92.4 (5da689c313, 2019-01-14)"
   sodipodi:docname="PPT_LanguageSwitch.svg">
  <defs
     id="defs2" />
  <sodipodi:namedview
     id="base"
     pagecolor="#ffffff"
     bordercolor="#666666"
     borderopacity="1.0"
     inkscape:pageopacity="0.0"
     inkscape:pageshadow="2"
     inkscape:zoom="0.7"
     inkscape:cx="222.30262"
     inkscape:cy="661.66821"
     inkscape:document-units="mm"
     inkscape:current-layer="layer1"
     showgrid="false"
     units="px"
     inkscape:window-width="1920"
     inkscape:window-height="1137"
     inkscape:window-x="-8"
     inkscape:window-y="-8"
     inkscape:window-maximized="1" />
  <metadata
     id="metadata5">
    <rdf:RDF>
      <cc:Work
         rdf:about="">
        <dc:format>image/svg+xml</dc:format>
        <dc:type
           rdf:resource="http://purl.org/dc/dcmitype/StillImage" />
        <dc:title></dc:title>
      </cc:Work>
    </rdf:RDF>
  </metadata>
  <g
     inkscape:label="Layer 1"
     inkscape:groupmode="layer"
     id="layer1"
     transform="translate(0,-132.95828)">
    <path
       id="path10"
       d="m 81.032899,190.10549 h -0.24332 c 0,0 -2.092573,10.17087 -3.795825,16.05927 l -5.353094,18.15183 h 18.443823 l -5.207091,-18.15183 c -1.75192,-5.8884 -3.844493,-16.05927 -3.844493,-16.05927 z M 302.79672,137.64522 H 14.703272 c -6.472355,0 -11.6794648,5.20709 -11.6794648,11.67947 v 132.36726 c 0,6.47236 5.2071098,11.67947 11.6794648,11.67947 H 302.79672 c 6.47238,0 11.67947,-5.20711 11.67947,-11.67947 V 149.32469 c 0,-6.47238 -5.20709,-11.67947 -11.67947,-11.67947 z M 116.50928,262.22618 h -10.99817 a 5.8397322,5.8397322 0 0 1 -5.596399,-4.18514 L 95.38891,242.61441 H 66.238917 l -4.428467,15.37796 c -0.729957,2.48189 -3.017201,4.23381 -5.596413,4.23381 H 45.264548 c -3.990496,0 -6.813027,-3.94182 -5.547745,-7.73765 l 27.787395,-81.75625 c 0.827292,-2.38456 3.017183,-3.94181 5.547746,-3.94181 h 15.669941 c 2.481877,0 4.720454,1.60592 5.547746,3.94181 l 27.787399,81.75625 c 1.26526,3.79583 -1.55727,7.73765 -5.54775,7.73765 z m 178.50114,11.67947 H 158.75 V 157.11101 H 295.01042 Z M 184.05551,201.88227 h 53.92019 c -3.06585,6.22906 -7.34834,12.60409 -12.6041,18.73581 -3.21185,-3.79582 -6.22903,-7.68897 -8.90558,-11.67946 -1.70325,-2.57921 -5.15842,-3.35784 -7.83497,-1.75192 l -6.66702,3.9905 c -2.87122,1.70325 -3.69851,5.49907 -1.84926,8.27294 3.16319,4.72045 7.00768,9.78156 11.43615,14.89131 -4.3798,3.74716 -9.05159,7.20235 -13.96669,10.31687 -2.62788,1.65458 -3.45519,5.10976 -1.89792,7.7863 l 3.84449,6.76436 c 1.65458,2.8712 5.35309,3.8445 8.17562,2.04391 6.08306,-3.84449 11.97146,-8.27296 17.5192,-13.04206 5.20709,4.67178 10.85217,9.05158 16.83789,12.94472 2.82255,1.80059 6.61837,0.92463 8.27296,-1.99523 l 3.89316,-6.76436 c 1.50858,-2.67653 0.72996,-6.08306 -1.84925,-7.78631 -4.47714,-2.91986 -8.95425,-6.37504 -13.23674,-10.17086 0.72998,-0.82729 1.41127,-1.60594 2.09258,-2.43323 8.32162,-10.02486 14.40468,-20.29306 17.90851,-30.17195 h 6.66703 c 3.21185,0 5.83973,-2.62788 5.83973,-5.83974 v -7.7863 c 0,-3.21185 -2.62788,-5.83973 -5.83973,-5.83973 h -31.14523 v -7.78631 c 0,-3.21185 -2.62788,-5.83973 -5.83973,-5.83973 h -7.78633 c -3.21185,0 -5.83973,2.62788 -5.83973,5.83973 v 7.78631 h -31.14523 c -3.21186,0 -5.83974,2.62788 -5.83974,5.83973 v 7.7863 c 0,3.26052 2.62788,5.8884 5.83974,5.8884 z"
       inkscape:connector-curvature="0"
       style="stroke-width:0.48664433;fill:#a52019;fill-opacity:1" />
  </g>
</svg>
